<svg width="15" height="27" viewBox="0 0 15 27" fill="none" xmlns="http://www.w3.org/2000/svg">
<path d="M5.07082 26.5L6.48928 16.5707L6.57081 16H5.99431H0.744311C0.6326 16 0.558177 15.9899 0.511429 15.9794C0.526992 15.9235 0.558324 15.8478 0.610783 15.7539C0.637247 15.7066 0.659225 15.6673 0.677364 15.6351C0.683192 15.6273 0.687417 15.6211 0.689544 15.618C0.700295 15.6023 0.70837 15.5884 0.708594 15.588C0.715698 15.5759 0.724136 15.5605 0.729079 15.5515C0.732964 15.5444 0.7377 15.5357 0.742689 15.5264C1.8828 13.5115 3.35794 10.9193 5.16557 7.74286C6.38721 5.59613 7.7607 3.18255 9.28526 0.5H9.9178L8.49933 10.4293L8.4178 11H8.99431H14.2443C14.3733 11 14.4439 11.0218 14.4762 11.0365C14.487 11.0415 14.4941 11.0458 14.4984 11.0489L14.4962 11.0536L14.4 11.2598C11.45 16.4185 9.24082 20.2902 7.76867 22.873C7.03173 24.1659 6.47949 25.1359 6.11146 25.7826L5.70339 26.5H5.07082Z" />
</svg>
