<svg width="431" height="394" viewBox="0 0 431 394" fill="none" xmlns="http://www.w3.org/2000/svg">
<path d="M372.293 332.881H36.5891L16.5718 105.166H352.276L372.293 332.881Z" fill="#F0F0F0"/>
<path d="M30.6648 340.139L36.5888 332.881L16.5715 105.166L10.6475 112.535L30.6648 340.139Z" fill="#0E64CB"/>
<path d="M41.0347 324.245L22.5956 114.48C22.4067 112.268 24.1406 110.367 26.3635 110.367H344.073C346.029 110.367 347.663 111.868 347.841 113.813L366.28 323.578C366.469 325.79 364.735 327.69 362.512 327.69H44.7914C42.8352 327.69 41.2014 326.19 41.0236 324.245H41.0347Z" fill="#ACC4FB"/>
<path d="M83.7813 332.881H33.199L29.6201 343.117H80.2024L83.7813 332.881Z" fill="#0E64CB"/>
<path d="M83.7815 332.881H416.351L412.772 343.117H80.2026L83.7815 332.881Z" fill="#9FB9F4"/>
<path d="M220.723 332.881H284.476L283.787 339.583H220.045L220.723 332.881Z" fill="#0E64CB"/>
<path d="M317.331 90.2168H397.878C404.558 134.408 373.682 170.764 329.501 170.764C315.364 170.764 300.915 167.041 287.6 159.972L317.331 90.2168Z" fill="#0E64CB"/>
<path d="M317.331 90.2168L359.789 28.5089C369.936 36.0667 378.617 45.5141 385.196 56.173C391.776 66.8318 396.111 78.4465 397.889 90.2168H317.342H317.331Z" fill="#A6C0FA"/>
<path d="M317.331 90.2168L305.161 9.66968C314.552 9.66968 324.133 11.3146 333.447 14.5267C342.761 17.7388 351.675 22.4736 359.789 28.5088L317.331 90.2168Z" fill="#889DCB"/>
<path d="M317.331 90.2168L287.6 159.972C260.536 145.601 241.13 118.959 236.795 90.2168C230.115 46.0254 260.992 9.66968 305.172 9.66968L317.342 90.2168H317.331Z" fill="#F0F0F0"/>
<path d="M217.889 233.961L219.667 163.595C236.651 166.507 252.944 175.165 265.682 188.036C278.419 200.896 286.799 217.167 289.333 233.961H217.889Z" fill="#0E64CB"/>
<path d="M217.889 233.961L154.436 258.402C150.402 250.566 147.69 242.297 146.434 233.961C140.51 194.76 167.896 162.517 207.086 162.517C211.243 162.517 215.455 162.884 219.657 163.606L217.878 233.972L217.889 233.961Z" fill="#F0F0F0"/>
<path d="M217.889 233.961L285.166 269.683C275.752 291.768 254.178 305.406 228.682 305.406C198.717 305.406 168.941 286.555 154.437 258.391L217.889 233.95V233.961Z" fill="#D8E3FC"/>
<path d="M215.5 393.311C334.517 393.311 431 387.678 431 380.729C431 373.78 334.517 368.147 215.5 368.147C96.4826 368.147 0 373.78 0 380.729C0 387.678 96.4826 393.311 215.5 393.311Z" fill="#9FB9F4"/>
<path d="M205.041 184.168H104.921C98.5634 184.168 92.9506 178.967 92.4282 172.62L87.4155 111.057C86.8931 104.699 91.6724 99.5086 98.0299 99.5086H198.15C204.507 99.5086 210.12 104.71 210.643 111.057L215.655 172.62C216.178 178.978 211.398 184.168 205.041 184.168Z" fill="#D8E3FC"/>
<path d="M205.041 184.646H104.921C98.3078 184.646 92.4838 179.267 91.9503 172.653L86.9376 111.09C86.6709 107.878 87.6934 104.844 89.8052 102.554C91.9058 100.275 94.8289 99.0195 98.0299 99.0195H198.15C204.763 99.0195 210.587 104.399 211.12 111.012L216.133 172.576C216.4 175.788 215.377 178.822 213.266 181.112C211.165 183.39 208.242 184.646 205.041 184.646ZM98.0299 99.9865C95.0957 99.9865 92.4282 101.131 90.5165 103.21C88.5937 105.299 87.6601 108.078 87.9046 111.012L92.9172 172.576C93.4174 178.7 98.808 183.69 104.932 183.69H205.052C207.986 183.69 210.654 182.545 212.565 180.467C214.488 178.377 215.422 175.599 215.177 172.665L210.165 111.101C209.664 104.977 204.274 99.9865 198.15 99.9865H98.0299Z" fill="#407BFF"/>
<path d="M177.865 166.196C173.942 170.475 168.863 173.543 163.15 175.11L161.494 170.364C173.82 166.996 182.167 155.504 181.055 141.844C180.388 133.686 176.487 126.306 170.708 120.96L173.897 117.481C188.346 130.841 190.136 152.825 177.865 166.196Z" fill="#0E64CB"/>
<path d="M173.897 117.481L170.707 120.96C164.928 115.614 157.281 112.313 149.123 112.313C140.965 112.313 133.852 115.625 128.961 120.971L125.193 117.481C131.129 111.023 139.598 107.389 148.723 107.389C157.848 107.389 166.917 111.023 173.897 117.481Z" fill="#263238"/>
<path d="M163.15 175.11C151.535 178.289 138.554 174.876 129.151 166.196C114.713 152.836 112.923 130.852 125.183 117.481L128.951 120.971C124.038 126.317 121.337 133.686 122.004 141.844C123.327 158.138 137.62 171.353 153.925 171.353C156.559 171.353 159.104 171.009 161.483 170.364L163.139 175.11H163.15Z" fill="#407BFF"/>
<path d="M68.6653 0H60.6406V0.96696H68.6653V0Z" fill="#407BFF"/>
<path d="M52.8495 0H34.5771V0.96696H52.8495V0Z" fill="#407BFF"/>
<path d="M137.854 88.4718H37.7452C31.3876 88.4718 25.7748 83.2701 25.2524 76.9237L20.2397 15.3603C19.7174 9.00275 24.4966 3.81226 30.8541 3.81226H130.974C137.332 3.81226 142.944 9.01386 143.467 15.3603L148.479 76.9237C149.002 83.2813 144.223 88.4718 137.865 88.4718H137.854Z" fill="#D8E3FC"/>
<path d="M137.853 88.9608H37.7447C31.1315 88.9608 25.3075 83.5814 24.774 76.9682L19.7613 15.4048C19.4946 12.1926 20.5171 9.15837 22.6289 6.86878C24.7295 4.59029 27.6527 3.33435 30.8537 3.33435H130.974C137.587 3.33435 143.411 8.71379 143.944 15.3269L148.957 76.8904C149.224 80.1025 148.201 83.1368 146.089 85.4264C143.989 87.7049 141.066 88.9608 137.865 88.9608H137.853ZM30.8537 4.2902C27.9194 4.2902 25.2519 5.43499 23.3402 7.51341C21.4174 9.60295 20.4838 12.3705 20.7283 15.3158L25.741 76.8793C26.2411 83.0034 31.6317 87.9939 37.7558 87.9939H137.876C140.81 87.9939 143.477 86.8491 145.389 84.7707C147.312 82.6811 148.246 79.9025 148.001 76.9682L142.988 15.4048C142.488 9.28063 137.098 4.2902 130.974 4.2902H30.8537Z" fill="#407BFF"/>
<path d="M29.2982 21.4733H82.3479L81.9145 16.2383H28.8647L29.2982 21.4733Z" fill="#0E64CB"/>
<path d="M135.397 21.4733H82.3475L81.9141 16.2383H134.975L135.397 21.4733Z" fill="#407BFF"/>
<path d="M30.41 35.122H45.5369L45.1146 29.8759H29.9766L30.41 35.122Z" fill="#0E64CB"/>
<path d="M136.509 35.122H45.5366L45.1143 29.8759H136.087L136.509 35.122Z" fill="#407BFF"/>
<path d="M31.5214 48.7707H78.736L78.3136 43.5246H31.0879L31.5214 48.7707Z" fill="#0E64CB"/>
<path d="M137.621 48.7707H78.7358L78.3135 43.5246H137.198L137.621 48.7707Z" fill="#407BFF"/>
<path d="M32.6216 62.4082H113.224L112.791 57.1732H32.1992L32.6216 62.4082Z" fill="#0E64CB"/>
<path d="M138.732 62.4082H113.224L112.791 57.1732H138.31L138.732 62.4082Z" fill="#407BFF"/>
<path d="M33.7329 76.0569H71.0111L70.5887 70.8108H33.3105L33.7329 76.0569Z" fill="#0E64CB"/>
<path d="M139.844 76.0569H71.0112L70.5889 70.8108H139.41L139.844 76.0569Z" fill="#407BFF"/>
<path d="M274.718 88.4718H174.598C168.241 88.4718 162.628 83.2701 162.105 76.9237L157.093 15.3603C156.57 9.00275 161.35 3.81226 167.707 3.81226H267.827C274.185 3.81226 279.797 9.01386 280.32 15.3603L285.332 76.9237C285.855 83.2813 281.076 88.4718 274.718 88.4718Z" fill="#D8E3FC"/>
<path d="M274.718 88.9608H174.598C167.985 88.9608 162.161 83.5814 161.628 76.9682L156.615 15.4048C156.348 12.1926 157.371 9.15837 159.482 6.86878C161.583 4.59029 164.506 3.33435 167.707 3.33435H267.827C274.44 3.33435 280.264 8.71379 280.798 15.3269L285.81 76.8904C286.077 80.1025 285.055 83.1368 282.943 85.4264C280.842 87.7049 277.919 88.9608 274.718 88.9608ZM167.707 4.30131C164.773 4.30131 162.105 5.44611 160.194 7.52453C158.271 9.61407 157.337 12.3927 157.582 15.3269L162.594 76.8904C163.095 83.0145 168.485 88.005 174.609 88.005H274.729C277.663 88.005 280.331 86.8602 282.243 84.7818C284.165 82.6922 285.099 79.9247 284.855 76.9793L279.842 15.4159C279.342 9.29174 273.951 4.30131 267.827 4.30131H167.707Z" fill="#407BFF"/>
<path d="M224.536 76.0568H222.769L217.901 16.2383H219.668L224.536 76.0568Z" fill="#0E64CB"/>
<path d="M227.203 51.1936H216.055L214.155 27.8308H225.303L227.203 51.1936Z" fill="#407BFF"/>
<path d="M202.596 76.0568H200.829L195.95 16.2383H197.717L202.596 76.0568Z" fill="#0E64CB"/>
<path d="M205.686 56.3841H194.527L192.86 35.9H204.019L205.686 56.3841Z" fill="#407BFF"/>
<path d="M180.645 76.0568H178.878L174.01 16.2383H175.777L180.645 76.0568Z" fill="#0E64CB"/>
<path d="M182.367 39.5345H171.22L170.075 25.4634H181.223L182.367 39.5345Z" fill="#263238"/>
<path d="M246.476 76.0568H244.709L239.841 16.2383H241.608L246.476 76.0568Z" fill="#0E64CB"/>
<path d="M250.222 64.4644H239.074L236.095 27.8308H247.243L250.222 64.4644Z" fill="#263238"/>
<path d="M268.427 76.0568H266.66L261.781 16.2383H263.548L268.427 76.0568Z" fill="#0E64CB"/>
<path d="M272.529 68.8546H261.381L258.991 39.5122H270.139L272.529 68.8546Z" fill="#407BFF"/>
<path d="M167.585 279.064H67.4649C61.1074 279.064 55.4945 273.862 54.9721 267.516L49.9595 205.953C49.4371 199.595 54.2163 194.405 60.5739 194.405H160.694C167.051 194.405 172.664 199.606 173.186 205.953L178.199 267.516C178.722 273.874 173.942 279.064 167.585 279.064Z" fill="#D8E3FC"/>
<path d="M167.585 279.542H67.4649C60.8517 279.542 55.0277 274.163 54.4942 267.549L49.4816 205.986C49.2148 202.774 50.2373 199.74 52.3491 197.45C54.4498 195.171 57.3729 193.916 60.5739 193.916H160.694C167.307 193.916 173.131 199.295 173.664 205.908L178.677 267.472C178.944 270.684 177.921 273.718 175.81 276.008C173.709 278.286 170.786 279.542 167.585 279.542ZM60.5739 194.882C57.6396 194.882 54.9721 196.027 53.0604 198.106C51.1376 200.195 50.204 202.974 50.4485 205.908L55.4612 267.472C55.9613 273.596 61.3519 278.586 67.476 278.586H167.596C170.53 278.586 173.198 277.441 175.109 275.363C177.032 273.273 177.966 270.506 177.721 267.561L172.709 205.997C172.208 199.873 166.818 194.882 160.694 194.882H60.5739Z" fill="#407BFF"/>
<path d="M74.1227 235.262L95.696 260.192L120.448 222.024L135.742 241.752L139.476 235.995L164.495 265.971L68.4209 265.938L74.1227 235.262Z" fill="#407BFF"/>
<path d="M146.156 236.818L136.13 258.291L104.143 207.497L89.0825 239.752L84.2476 232.094L68.4316 265.971L164.484 265.927L146.156 236.818Z" fill="#0E64CB"/>
<path d="M352.076 94.8851C354.754 99.9088 357.055 104.877 359.222 110.045C361.334 115.225 363.29 120.482 364.813 126.028C365.202 127.406 365.536 128.829 365.858 130.252C365.991 130.741 366.302 132.286 366.302 133.264C366.358 134.353 366.269 135.342 366.136 136.276C365.536 139.966 364.235 142.8 362.835 145.478C359.956 150.78 356.488 155.17 352.443 159.316C351.231 160.561 349.242 160.583 347.997 159.372C346.985 158.382 346.774 156.871 347.397 155.682L347.474 155.526C349.853 150.925 352.22 146.068 353.81 141.466C354.577 139.188 355.188 136.854 355.177 135.131C355.166 134.72 355.155 134.342 355.088 134.075C355.066 133.942 355.032 133.819 354.999 133.753L354.788 133.097C354.421 131.897 354.032 130.707 353.587 129.496C351.909 124.672 349.82 119.826 347.663 115.014C345.507 110.223 343.195 105.344 340.906 100.709L340.861 100.62C339.316 97.497 340.594 93.718 343.718 92.1731C346.774 90.6615 350.475 91.873 352.076 94.8628V94.8851Z" fill="#407BFF"/>
<path d="M348.597 155.07L343.295 156.738L349.541 164.051C349.541 164.051 351.953 161.928 352.82 158.86C353.109 157.827 352.687 156.715 351.809 156.082L350.919 155.437C350.253 154.948 349.386 154.815 348.597 155.059V155.07Z" fill="#7F3E3B"/>
<path d="M335.982 161.25L342.673 166.563L349.541 164.051L343.295 156.749L335.982 161.25Z" fill="#7F3E3B"/>
<path d="M313.141 57.7069C313.008 58.3627 312.552 58.8295 312.119 58.7406C311.685 58.6517 311.452 58.0515 311.585 57.3957C311.719 56.74 312.174 56.2731 312.608 56.3621C313.041 56.451 313.275 57.0512 313.141 57.7069Z" fill="#263238"/>
<path d="M312.608 58.8406C312.608 58.8406 310.34 62.3305 308.329 63.831C309.273 65.1536 311.352 65.0536 311.352 65.0536L312.619 58.8406H312.608Z" fill="#630F0F"/>
<path d="M316.287 54.5504C316.387 54.5504 316.476 54.517 316.554 54.4503C316.709 54.3059 316.72 54.0502 316.576 53.8946C315.098 52.2941 313.297 52.5831 313.219 52.5942C313.008 52.6276 312.864 52.8387 312.897 53.0499C312.93 53.2611 313.141 53.4056 313.353 53.3722C313.408 53.3722 314.82 53.1611 315.998 54.4392C316.076 54.5281 316.176 54.5615 316.287 54.5615V54.5504Z" fill="#263238"/>
<path d="M331.403 69.6772C330.214 75.768 329.491 84.1928 333.748 88.2608C333.748 88.2608 332.081 94.4293 320.777 94.4293C308.34 94.4293 314.798 89.0166 314.798 89.0166C319.966 87.4161 319.921 81.5253 318.743 76.7906L331.414 69.6772H331.403Z" fill="#7F3E3B"/>
<path d="M312.608 88.0607C312.608 88.0607 314.419 83.7594 316.275 83.0258C318.132 82.2811 329.924 80.3472 332.636 82.0589C335.348 83.7705 337.193 89.2611 337.193 89.2611L312.608 88.0607Z" fill="#407BFF"/>
<path d="M325.078 372.66C324.011 372.66 322.978 372.515 322.633 372.037C322.511 371.871 322.422 371.582 322.644 371.182C322.778 370.948 322.989 370.793 323.267 370.726C324.656 370.348 327.557 372.004 327.679 372.082C327.746 372.126 327.79 372.204 327.779 372.282C327.768 372.36 327.701 372.426 327.623 372.449C327.09 372.56 326.067 372.682 325.067 372.682L325.078 372.66ZM323.756 371.048C323.622 371.048 323.489 371.059 323.378 371.093C323.2 371.137 323.067 371.237 322.989 371.371C322.844 371.615 322.9 371.737 322.955 371.804C323.344 372.338 325.445 372.36 326.99 372.137C326.223 371.737 324.734 371.048 323.756 371.048Z" fill="#407BFF"/>
<path d="M327.59 372.426C327.59 372.426 327.535 372.426 327.512 372.404C326.512 371.949 324.523 370.159 324.667 369.214C324.7 368.992 324.856 368.714 325.401 368.659C325.801 368.614 326.168 368.736 326.49 368.992C327.546 369.859 327.768 372.104 327.779 372.193C327.779 372.26 327.757 372.326 327.701 372.371C327.668 372.393 327.624 372.404 327.59 372.404V372.426ZM325.556 369.059C325.556 369.059 325.478 369.059 325.434 369.059C325.078 369.092 325.056 369.237 325.045 369.281C324.956 369.848 326.301 371.259 327.335 371.871C327.223 371.215 326.935 369.87 326.234 369.303C326.023 369.137 325.801 369.048 325.545 369.048L325.556 369.059Z" fill="#407BFF"/>
<path d="M336.738 372.226H328.413L327.59 352.965H335.904L336.738 372.226Z" fill="#7F3E3B"/>
<path d="M328.468 371.271H337.549C337.894 371.271 338.183 371.504 338.26 371.837L339.905 379.229C340.072 379.996 339.494 380.718 338.705 380.707C335.426 380.651 330.691 380.462 326.568 380.462C321.755 380.462 321.166 380.729 315.52 380.729C312.108 380.729 311.152 377.272 312.586 376.961C319.099 375.539 320.833 375.383 326.457 371.915C327.068 371.537 327.746 371.271 328.457 371.271H328.468Z" fill="#263238"/>
<path d="M348.641 88.283C356.444 90.0725 361.579 111.112 361.579 111.112L348.563 120.893C348.563 120.893 341.461 116.492 338.905 106.533C336.226 96.0966 340.672 86.4491 348.641 88.283Z" fill="#263238"/>
<path opacity="0.2" d="M341.962 102.921C346.196 107.111 348.93 113.724 349.264 120.36L348.575 120.893C348.575 120.893 341.461 116.492 338.905 106.533C338.75 105.911 338.616 105.288 338.494 104.677L341.962 102.921Z" fill="black"/>
<path d="M376.672 119.63L313.507 144.869L332.275 191.841L395.441 166.602L376.672 119.63Z" fill="#407BFF"/>
<path opacity="0.5" d="M375.755 119.994L313.519 144.861L332.287 191.833L394.523 166.965L375.755 119.994Z" fill="#D8E3FC"/>
<g opacity="0.5">
<path d="M324.909 145.126L319.016 147.481L320.686 151.661L326.579 149.306L324.909 145.126Z" fill="#407BFF"/>
<path d="M334.642 141.239L328.749 143.594L330.419 147.774L336.312 145.419L334.642 141.239Z" fill="#407BFF"/>
<path d="M344.367 137.352L338.474 139.707L340.144 143.887L346.037 141.532L344.367 137.352Z" fill="#407BFF"/>
<path d="M354.099 133.461L348.206 135.816L349.876 139.996L355.77 137.641L354.099 133.461Z" fill="#407BFF"/>
<path d="M363.821 129.575L357.928 131.93L359.598 136.11L365.491 133.755L363.821 129.575Z" fill="#407BFF"/>
<path d="M373.554 125.699L367.66 128.054L369.331 132.234L375.224 129.879L373.554 125.699Z" fill="#407BFF"/>
<path d="M327.673 152.024L321.78 154.379L323.45 158.559L329.343 156.204L327.673 152.024Z" fill="#407BFF"/>
<path d="M337.395 148.138L331.502 150.492L333.172 154.672L339.065 152.318L337.395 148.138Z" fill="#407BFF"/>
<path d="M347.117 144.251L341.223 146.606L342.894 150.786L348.787 148.431L347.117 144.251Z" fill="#407BFF"/>
<path d="M356.86 140.36L350.967 142.715L352.637 146.895L358.53 144.54L356.86 140.36Z" fill="#407BFF"/>
<path d="M366.586 136.473L360.692 138.828L362.362 143.008L368.256 140.653L366.586 136.473Z" fill="#407BFF"/>
<path d="M376.307 132.587L370.414 134.941L372.084 139.121L377.977 136.767L376.307 132.587Z" fill="#407BFF"/>
<path d="M330.423 158.912L324.529 161.267L326.2 165.447L332.093 163.092L330.423 158.912Z" fill="#407BFF"/>
<path d="M340.144 155.026L334.251 157.38L335.921 161.56L341.815 159.206L340.144 155.026Z" fill="#407BFF"/>
<path d="M349.881 151.149L343.988 153.504L345.658 157.684L351.551 155.329L349.881 151.149Z" fill="#407BFF"/>
<path d="M359.613 147.259L353.72 149.614L355.39 153.794L361.283 151.439L359.613 147.259Z" fill="#407BFF"/>
<path d="M369.335 143.372L363.441 145.727L365.111 149.907L371.005 147.552L369.335 143.372Z" fill="#407BFF"/>
<path d="M379.067 139.486L373.174 141.84L374.844 146.021L380.737 143.666L379.067 139.486Z" fill="#407BFF"/>
<path d="M333.187 165.821L327.293 168.176L328.964 172.356L334.857 170.002L333.187 165.821Z" fill="#407BFF"/>
<path d="M342.909 161.935L337.015 164.29L338.686 168.47L344.579 166.115L342.909 161.935Z" fill="#407BFF"/>
<path d="M352.63 158.037L346.737 160.392L348.407 164.572L354.3 162.217L352.63 158.037Z" fill="#407BFF"/>
<path d="M362.373 154.147L356.48 156.501L358.15 160.682L364.043 158.327L362.373 154.147Z" fill="#407BFF"/>
<path d="M372.095 150.26L366.201 152.615L367.871 156.795L373.765 154.44L372.095 150.26Z" fill="#407BFF"/>
<path d="M381.821 146.384L375.927 148.739L377.597 152.919L383.491 150.564L381.821 146.384Z" fill="#407BFF"/>
<path d="M335.936 172.709L330.043 175.064L331.713 179.244L337.606 176.889L335.936 172.709Z" fill="#407BFF"/>
<path d="M345.658 168.823L339.764 171.178L341.435 175.358L347.328 173.003L345.658 168.823Z" fill="#407BFF"/>
<path d="M355.39 164.936L349.497 167.291L351.167 171.471L357.06 169.116L355.39 164.936Z" fill="#407BFF"/>
<path d="M365.116 161.06L359.223 163.415L360.893 167.595L366.786 165.24L365.116 161.06Z" fill="#407BFF"/>
<path d="M374.848 157.17L368.955 159.524L370.625 163.704L376.518 161.35L374.848 157.17Z" fill="#407BFF"/>
<path d="M384.581 153.272L378.688 155.627L380.358 159.807L386.251 157.452L384.581 153.272Z" fill="#407BFF"/>
<path d="M338.7 179.608L332.807 181.962L334.477 186.142L340.371 183.788L338.7 179.608Z" fill="#407BFF"/>
<path d="M348.422 175.721L342.529 178.076L344.199 182.256L350.092 179.901L348.422 175.721Z" fill="#407BFF"/>
<path d="M358.144 171.835L352.25 174.189L353.92 178.369L359.814 176.015L358.144 171.835Z" fill="#407BFF"/>
<path d="M367.865 167.948L361.972 170.303L363.642 174.483L369.535 172.128L367.865 167.948Z" fill="#407BFF"/>
<path d="M377.608 164.046L371.715 166.401L373.385 170.581L379.278 168.226L377.608 164.046Z" fill="#407BFF"/>
<path d="M387.33 160.171L381.437 162.526L383.107 166.706L389 164.351L387.33 160.171Z" fill="#407BFF"/>
</g>
<path d="M371.448 134.497C371.093 133.597 371.526 132.563 372.426 132.208C373.327 131.841 374.36 132.285 374.716 133.186C375.083 134.086 374.638 135.12 373.738 135.475C372.838 135.842 371.804 135.398 371.448 134.497Z" fill="#D8E3FC"/>
<path d="M369.992 159.071C369.626 158.171 370.07 157.138 370.97 156.782C371.871 156.415 372.904 156.86 373.26 157.76C373.616 158.66 373.182 159.694 372.282 160.05C371.382 160.416 370.348 159.972 369.992 159.071Z" fill="#D8E3FC"/>
<path d="M347.774 159.95C347.408 159.049 347.852 158.016 348.752 157.66C349.653 157.293 350.686 157.738 351.042 158.638C351.409 159.538 350.964 160.572 350.064 160.928C349.164 161.283 348.13 160.85 347.774 159.95Z" fill="#D8E3FC"/>
<path d="M333.825 181.523C333.47 180.623 333.903 179.589 334.803 179.233C335.704 178.867 336.737 179.311 337.093 180.211C337.46 181.112 337.015 182.145 336.115 182.501C335.215 182.868 334.181 182.423 333.825 181.523Z" fill="#D8E3FC"/>
<path d="M335.47 181.523C335.348 181.523 335.226 181.49 335.114 181.423C334.814 181.223 334.725 180.823 334.925 180.523L348.874 158.949C348.985 158.771 349.185 158.66 349.397 158.649L371.014 157.793L372.437 133.808C372.459 133.453 372.782 133.175 373.126 133.197C373.482 133.219 373.76 133.53 373.737 133.886L372.281 158.46C372.259 158.794 371.992 159.06 371.659 159.072L349.786 159.939L336.026 181.223C335.904 181.412 335.692 181.523 335.481 181.523H335.47Z" fill="#D8E3FC"/>
<path d="M299.37 96.63C297.67 105.622 296.603 124.072 301.538 160.628H346.029C345.229 154.292 342.039 120.482 348.63 88.2941C348.63 88.2941 341.005 86.7603 333.737 86.4157C328.046 86.1379 319.821 85.96 314.82 86.4157C312.73 86.6047 310.685 86.9048 308.862 87.2271C304.05 88.0829 300.271 91.8285 299.359 96.63H299.37Z" fill="#263238"/>
<path opacity="0.2" d="M306.373 110.468L298.014 111.135C297.714 121.949 298.459 137.732 301.549 160.616H301.949C306.962 144.134 313.608 120.571 306.373 110.468Z" fill="black"/>
<path opacity="0.2" d="M327.59 352.976L328.013 362.901H336.337L335.915 352.976H327.59Z" fill="black"/>
<path d="M335.359 60.7745C333.225 68.7548 332.381 73.5229 327.457 76.8462C320.055 81.8366 310.841 76.1126 310.552 67.6544C310.296 60.041 313.831 48.2818 322.389 46.6702C330.825 45.0919 337.504 52.7943 335.359 60.7745Z" fill="#7F3E3B"/>
<path d="M316.687 60.8301L312.364 61.9527L316.387 51.5161C315.954 50.7159 314.809 47.0925 316.02 43.4692C316.343 42.5133 317.221 41.8687 318.221 41.8464C327.179 41.6686 336.549 46.7035 341.261 50.5047C342.173 51.2382 342.395 52.5275 341.784 53.5278C340.75 55.2172 339.416 56.5176 337.727 58.2293C337.638 61.1524 332.87 74.3454 330.225 75.8347C327.579 77.313 322.533 76.7128 321.2 74.3009C319.855 71.8891 315.32 68.6992 316.687 60.8301Z" fill="#263238"/>
<path d="M320.688 60.9968C320.199 63.1086 318.876 64.9424 317.465 66.0539C315.342 67.7211 313.686 66.1873 313.775 63.731C313.853 61.5192 315.053 57.9959 317.42 57.2734C319.755 56.5621 321.244 58.5961 320.688 60.9968Z" fill="#7F3E3B"/>
<path d="M396.756 369.792C396.756 368.725 396.89 367.692 397.368 367.347C397.534 367.225 397.823 367.125 398.223 367.347C398.457 367.481 398.613 367.681 398.69 367.97C399.079 369.348 397.434 372.271 397.368 372.393C397.323 372.46 397.245 372.504 397.168 372.493C397.09 372.482 397.023 372.415 397.001 372.338C396.89 371.804 396.756 370.782 396.756 369.792ZM398.357 368.459C398.357 368.325 398.346 368.192 398.312 368.081C398.257 367.903 398.168 367.77 398.035 367.692C397.79 367.558 397.668 367.603 397.601 367.658C397.068 368.047 397.068 370.148 397.29 371.693C397.679 370.915 398.368 369.426 398.357 368.459Z" fill="#407BFF"/>
<path d="M397 372.293C397 372.293 397.001 372.238 397.023 372.215C397.467 371.204 399.257 369.203 400.19 369.359C400.413 369.392 400.691 369.548 400.746 370.092C400.791 370.493 400.679 370.859 400.413 371.193C399.546 372.26 397.312 372.493 397.212 372.504C397.145 372.504 397.078 372.482 397.034 372.427C397.012 372.393 397 372.349 397 372.315V372.293ZM400.357 370.237C400.357 370.237 400.357 370.159 400.357 370.115C400.324 369.759 400.179 369.737 400.135 369.737C399.568 369.648 398.168 371.015 397.556 372.038C398.212 371.926 399.546 371.626 400.113 370.926C400.279 370.715 400.368 370.493 400.368 370.237H400.357Z" fill="#407BFF"/>
<path d="M397.134 372.349L389.009 372.927L384.452 353.509L392.566 352.932L397.134 372.349Z" fill="#7F3E3B"/>
<path d="M397.101 370.493L388.053 369.692C387.72 369.659 387.398 369.87 387.298 370.192L385.008 377.417C384.775 378.162 385.286 378.94 386.075 378.995C389.343 379.229 394.077 379.451 398.179 379.818C402.98 380.24 399.868 380.229 405.492 380.729C408.893 381.029 410.138 377.673 408.749 377.239C402.391 375.25 401.235 373.871 399.046 371.315C398.579 370.77 397.823 370.559 397.112 370.493H397.101Z" fill="#263238"/>
<path opacity="0.2" d="M384.452 353.509L386.808 363.524L394.922 362.946L392.577 352.943L384.452 353.509Z" fill="black"/>
<path d="M317.332 160.616C317.332 160.616 336.471 224.514 343.729 248.232C351.675 274.207 381.929 360.378 381.929 360.378L396.601 357.155C396.601 357.155 375.883 283.121 367.28 246.888C360.678 219.057 346.04 160.605 346.04 160.605H317.332V160.616Z" fill="#407BFF"/>
<path d="M379.351 355.855C379.284 355.855 380.796 361.579 380.796 361.579L398.435 359.689L398.357 354.443L379.351 355.855Z" fill="#263238"/>
<path opacity="0.3" d="M327.924 190.237C338.516 191.637 342.728 228.537 344.318 250.189C344.118 249.5 343.906 248.855 343.718 248.232C339.761 235.284 332.247 210.321 326.257 190.348C326.757 190.181 327.324 190.148 327.924 190.226V190.237Z" fill="black"/>
<path d="M301.549 160.616C301.549 160.616 307.962 222.847 310.729 248.188C313.608 274.541 324.4 360.978 324.4 360.978H338.493C338.493 360.978 336.782 276.119 336.215 250.2C335.593 221.947 330.791 160.616 330.791 160.616H301.538H301.549Z" fill="#407BFF"/>
<path d="M322.211 355.366C322.144 355.366 323.011 361.212 323.011 361.212H340.15L340.616 355.988L322.211 355.354V355.366Z" fill="#263238"/>
<path d="M241.364 219.168C248.71 230.816 264.115 234.306 275.763 226.959C287.411 219.613 290.901 204.219 283.555 192.56C276.208 180.912 260.803 177.411 249.155 184.757C237.507 192.104 234.017 207.509 241.353 219.157L241.364 219.168ZM280.22 194.671C286.4 204.474 283.466 217.445 273.663 223.625C263.848 229.805 250.889 226.87 244.709 217.067C238.529 207.253 241.464 194.294 251.278 188.114C261.081 181.934 274.052 184.868 280.231 194.683L280.22 194.671Z" fill="#263238"/>
<path opacity="0.2" d="M281.22 210.121C278.875 220.479 268.572 226.981 258.202 224.625C247.843 222.28 241.341 211.977 243.687 201.607C246.032 191.248 256.335 184.746 266.705 187.091C277.064 189.437 283.566 199.74 281.209 210.11L281.22 210.121Z" fill="#407BFF"/>
<path d="M284.232 189.548L286.566 193.26C286.922 193.827 286.755 194.571 286.188 194.927C285.622 195.283 284.877 195.116 284.521 194.549L282.187 190.837C281.832 190.27 281.998 189.525 282.565 189.17C283.132 188.814 283.877 188.981 284.232 189.548Z" fill="#263238"/>
<path d="M299.359 179C296.658 180.845 293.98 182.723 291.323 184.657C288.678 186.591 286.055 188.558 283.499 190.648C282.932 191.115 282.721 191.926 283.054 192.626C283.443 193.46 284.432 193.816 285.255 193.427C288.245 192.026 291.145 190.515 294.035 188.959C296.925 187.403 299.77 185.791 302.605 184.146C305.016 182.746 307.406 181.312 309.773 179.867C310.463 179.445 310.663 178.544 310.24 177.866L308.317 174.81C307.895 174.132 306.984 173.932 306.317 174.365C303.983 175.888 301.66 177.422 299.359 178.989V179Z" fill="#263238"/>
<path d="M311.752 99.7421C310.396 106.411 308.929 113.068 307.417 119.693L302.805 139.543C301.315 146.012 300.037 152.57 298.87 159.227L295.369 179.233V179.278C295.058 180.989 293.435 182.123 291.735 181.823C290.245 181.567 289.189 180.289 289.134 178.844C288.889 171.898 289 165.029 289.389 158.116C289.801 151.225 290.445 144.267 291.579 137.354C292.657 130.552 293.88 123.827 295.18 117.114C296.481 110.401 297.892 103.71 299.426 97.0635C300.215 93.6736 303.594 91.5507 306.984 92.3398C310.318 93.1067 312.419 96.4078 311.741 99.7421H311.752Z" fill="#407BFF"/>
<path d="M294.425 177.433C293.858 176.833 293.013 176.588 292.224 176.777L290.412 177.211C289.49 177.433 288.79 178.2 288.667 179.144L288.145 183.157C288.001 184.302 288.245 185.469 288.834 186.469L291.313 190.57C291.968 191.437 293.058 191.848 294.125 191.615L296.714 191.07C298.337 190.726 299.304 189.059 298.793 187.48L298.115 185.391C298.115 185.391 298.07 181.301 294.425 177.433Z" fill="#7F3E3B"/>
<path d="M320.41 95.8854C324.456 106.611 310.463 121.916 310.463 121.916L292.757 116.058C292.757 116.058 294.113 101.42 300.26 93.1623C307.851 82.9703 317.332 87.7162 320.41 95.8854Z" fill="#263238"/>
</svg>
