<svg width="374" height="395" viewBox="0 0 374 395" fill="none" xmlns="http://www.w3.org/2000/svg">
<path d="M75.3957 320.796H122.17V352.678C122.17 365.586 111.69 376.067 98.7821 376.067C85.874 376.067 75.3938 365.586 75.3938 352.678V320.796H75.3957Z" fill="#5896FA"/>
<path d="M75.3957 344.89H72.8035V394.378H75.3957V344.89Z" fill="#0E64CB"/>
<path d="M124.762 344.89H122.17V394.378H124.762V344.89Z" fill="#0E64CB"/>
<path d="M104.925 344.89H102.333V394.378H104.925V344.89Z" fill="#0E64CB"/>
<path d="M122.291 376.067H72.8035V378.659H122.291V376.067Z" fill="#0E64CB"/>
<path d="M135.207 268.121C138.029 272.186 132.348 275.69 131.463 281.326C130.577 286.961 137.032 290.131 130.187 297.51C125.971 302.054 122.41 296.018 118.983 302.983C115.557 309.948 118.257 311.122 114.405 313.627C107.69 317.996 97.4151 308.341 100.87 301.384C104.325 294.427 111.316 295.05 108.082 289.325C104.848 283.601 103.645 281.135 109.223 278.194C116.125 274.554 122.206 277.897 122.763 272.571C123.318 267.245 131.474 262.742 135.209 268.121H135.207Z" fill="#0E64CB"/>
<path d="M105.702 320.477L104.541 320.247C109.982 292.741 128.023 273.481 128.206 273.289L129.065 274.104C128.886 274.293 111.077 293.318 105.704 320.477H105.702Z" fill="#0E0E0E"/>
<path d="M44.7519 257.96C41.8331 263.907 50.0571 267.402 52.3604 274.682C54.6638 281.962 46.1811 284.534 56.7235 292.922C63.2182 298.087 64.5756 294.859 66.9639 306.415C69.0653 316.59 76.7965 306.908 82.5775 312.88C90.0369 320.585 101.693 303.674 95.7217 295.163C89.75 286.652 82.7814 288.853 85.9098 280.627C89.0382 272.403 85.3076 266.205 77.3365 263.435C67.4699 260.005 63.9224 268.286 62.1156 261.349C60.3107 254.413 48.6109 250.095 44.7519 257.962V257.96Z" fill="#407BFF"/>
<path d="M94.3244 321.308C81.7448 286.429 54.3577 264.855 54.084 264.64L55.0563 263.388C55.3357 263.605 83.0815 285.464 95.8159 320.769L94.3244 321.308Z" fill="#0E0E0E"/>
<path d="M128.601 224.756C183.844 224.756 228.628 179.973 228.628 124.729C228.628 69.486 183.844 24.7024 128.601 24.7024C73.3574 24.7024 28.5737 69.486 28.5737 124.729C28.5737 179.973 73.3574 224.756 128.601 224.756Z" stroke="#2E77E6" stroke-width="8.73" stroke-miterlimit="10"/>
<path d="M153.926 118.163C154.032 117.383 154.105 116.592 154.105 115.782C154.105 106.046 146.214 98.1542 136.477 98.1542C129.173 98.1542 122.906 102.597 120.233 108.927C118.056 106.988 115.196 105.8 112.052 105.8C105.248 105.8 99.7334 111.315 99.7334 118.12H97.4338C90.892 118.12 85.5396 123.472 85.5396 130.014C85.5396 136.556 90.892 141.908 97.4338 141.908H153.048C159.59 141.908 164.942 136.556 164.942 130.014C164.942 123.768 160.06 118.62 153.926 118.165V118.163Z" fill="white"/>
<path d="M164.865 176.007H90.4033C87.8977 176.007 85.8665 178.038 85.8665 180.544V243.013C85.8665 245.519 87.8977 247.55 90.4033 247.55H164.865C167.371 247.55 169.402 245.519 169.402 243.013V180.544C169.402 178.038 167.371 176.007 164.865 176.007Z" fill="#5896FA"/>
<path d="M152.925 219.206H102.567C100.919 219.206 99.571 217.858 99.571 216.209C99.571 214.561 100.919 213.213 102.567 213.213H152.925C154.574 213.213 155.922 214.561 155.922 216.209C155.922 217.858 154.574 219.206 152.925 219.206Z" fill="white"/>
<path d="M152.925 228.855H102.567C100.919 228.855 99.571 227.507 99.571 225.859C99.571 224.211 100.919 222.863 102.567 222.863H152.925C154.574 222.863 155.922 224.211 155.922 225.859C155.922 227.507 154.574 228.855 152.925 228.855Z" fill="white"/>
<path d="M111.969 226.125C111.969 226.709 111.497 227.181 110.914 227.181C110.331 227.181 109.859 226.709 109.859 226.125C109.859 225.542 110.331 225.07 110.914 225.07C111.497 225.07 111.969 225.542 111.969 226.125Z" fill="#80B2FF"/>
<path d="M115.587 226.125C115.587 226.709 115.115 227.181 114.531 227.181C113.948 227.181 113.476 226.709 113.476 226.125C113.476 225.542 113.948 225.07 114.531 225.07C115.115 225.07 115.587 225.542 115.587 226.125Z" fill="#80B2FF"/>
<path d="M119.203 226.125C119.203 226.709 118.731 227.181 118.147 227.181C117.564 227.181 117.092 226.709 117.092 226.125C117.092 225.542 117.564 225.07 118.147 225.07C118.731 225.07 119.203 225.542 119.203 226.125Z" fill="#80B2FF"/>
<path d="M122.82 226.125C122.82 226.709 122.348 227.181 121.764 227.181C121.181 227.181 120.709 226.709 120.709 226.125C120.709 225.542 121.181 225.07 121.764 225.07C122.348 225.07 122.82 225.542 122.82 226.125Z" fill="#80B2FF"/>
<path d="M126.437 226.125C126.437 226.709 125.965 227.181 125.382 227.181C124.798 227.181 124.326 226.709 124.326 226.125C124.326 225.542 124.798 225.07 125.382 225.07C125.965 225.07 126.437 225.542 126.437 226.125Z" fill="#80B2FF"/>
<path d="M130.053 226.125C130.053 226.709 129.581 227.181 128.997 227.181C128.414 227.181 127.942 226.709 127.942 226.125C127.942 225.542 128.414 225.07 128.997 225.07C129.581 225.07 130.053 225.542 130.053 226.125Z" fill="#80B2FF"/>
<path d="M133.67 226.125C133.67 226.709 133.198 227.181 132.614 227.181C132.031 227.181 131.559 226.709 131.559 226.125C131.559 225.542 132.031 225.07 132.614 225.07C133.198 225.07 133.67 225.542 133.67 226.125Z" fill="#80B2FF"/>
<path d="M137.286 226.125C137.286 226.709 136.814 227.181 136.23 227.181C135.647 227.181 135.175 226.709 135.175 226.125C135.175 225.542 135.647 225.07 136.23 225.07C136.814 225.07 137.286 225.542 137.286 226.125Z" fill="#80B2FF"/>
<path d="M140.903 226.125C140.903 226.709 140.431 227.181 139.848 227.181C139.264 227.181 138.792 226.709 138.792 226.125C138.792 225.542 139.264 225.07 139.848 225.07C140.431 225.07 140.903 225.542 140.903 226.125Z" fill="#80B2FF"/>
<path d="M127.762 204.827C134.155 204.827 139.338 199.644 139.338 193.252C139.338 186.859 134.155 181.676 127.762 181.676C121.37 181.676 116.187 186.859 116.187 193.252C116.187 199.644 121.37 204.827 127.762 204.827Z" fill="white"/>
<path d="M127.779 192.787C128.908 192.787 129.953 192.236 130.619 191.396C131.112 190.788 131.401 190.004 131.401 189.136C131.401 187.136 129.777 185.484 127.778 185.484C125.778 185.484 124.126 187.136 124.126 189.136C124.126 190.006 124.415 190.788 124.908 191.396C125.574 192.236 126.616 192.787 127.778 192.787H127.779Z" fill="#005CEA"/>
<path d="M134.195 199.293C134.195 201.599 121.326 201.599 121.326 199.293L121.33 196.609C121.838 192.938 133.149 192.784 134.197 196.609V199.293H134.195Z" fill="#005CEA"/>
<path d="M105.063 225.306V225.145C105.063 224.496 104.535 223.967 103.885 223.967C103.236 223.967 102.707 224.496 102.707 225.145V225.306H102.528V227.43C102.528 227.796 105.25 227.796 105.25 227.43V225.306H105.063ZM103.126 225.145C103.126 224.737 103.377 224.367 103.885 224.367C104.393 224.367 104.652 224.715 104.652 225.145V225.306H103.126V225.145ZM104.085 226.376V226.99C104.085 227.099 103.991 227.179 103.881 227.179C103.772 227.179 103.692 227.099 103.692 226.99V226.376C103.583 226.314 103.504 226.203 103.504 226.061C103.504 225.857 103.677 225.683 103.881 225.683C104.085 225.683 104.259 225.857 104.259 226.061C104.259 226.203 104.18 226.312 104.085 226.376Z" fill="#5896FA"/>
<path d="M103.887 215.991C104.125 215.991 104.346 215.874 104.485 215.698C104.589 215.57 104.65 215.405 104.65 215.22C104.65 214.799 104.308 214.45 103.885 214.45C103.462 214.45 103.115 214.799 103.115 215.22C103.115 215.404 103.175 215.57 103.279 215.698C103.419 215.876 103.64 215.991 103.885 215.991H103.887Z" fill="#5896FA"/>
<path d="M105.243 217.365C105.243 217.852 102.513 217.852 102.513 217.365L102.528 216.799C102.635 216.025 105.022 215.991 105.243 216.799V217.365Z" fill="#5896FA"/>
<path d="M121.526 217.087H110.491C110.008 217.087 109.611 216.691 109.611 216.208C109.611 215.724 110.008 215.328 110.491 215.328H121.526C122.01 215.328 122.406 215.724 122.406 216.208C122.406 216.691 122.01 217.087 121.526 217.087Z" fill="#80B2FF"/>
<path d="M136.083 217.087H125.048C124.564 217.087 124.168 216.691 124.168 216.208C124.168 215.724 124.564 215.328 125.048 215.328H136.083C136.566 215.328 136.963 215.724 136.963 216.208C136.963 216.691 136.566 217.087 136.083 217.087Z" fill="#80B2FF"/>
<path d="M131.435 233.071H121.436C120.018 233.071 118.868 234.22 118.868 235.638C118.868 237.055 120.018 238.204 121.436 238.204H131.435C132.853 238.204 134.002 237.055 134.002 235.638C134.002 234.22 132.853 233.071 131.435 233.071Z" fill="#1251B3"/>
<path d="M25.2547 120.395C19.519 126.54 10.3642 131.575 0.569361 133.722C0.565585 134.377 0.550481 138 0.474962 154.707C0.374899 176.992 21.5845 187.882 24.8771 189.553C28.0678 188.084 49.5436 177.211 49.6436 154.926C49.7191 138.221 49.7342 134.596 49.738 133.941C39.9621 131.707 30.9356 126.591 25.2547 120.395Z" fill="white"/>
<path d="M25.1963 124.422C19.5795 129.574 11.7973 133.626 3.23908 135.833L3.15412 154.714C3.11636 163.354 6.54682 171.17 13.3568 177.946C17.8294 182.398 22.5342 185.16 24.9206 186.4C25.0226 186.348 25.1359 186.289 25.2473 186.232V124.467C25.2303 124.452 25.2133 124.439 25.1982 124.424L25.1963 124.422Z" fill="#296ACC"/>
<path d="M25.2451 124.467V186.232C27.7259 184.941 32.2382 182.273 36.5579 178.05C43.4264 171.336 46.9286 163.55 46.9663 154.911L47.0513 136.029C38.5384 133.752 30.8128 129.65 25.2451 124.467Z" fill="#2E77E6"/>
<path d="M15.301 151.681V166.309C15.301 167.938 35.189 167.938 35.189 166.309V151.681H15.301ZM26.2513 159.448V163.594C26.2513 164.147 25.802 164.604 25.2507 164.604C24.6994 164.604 24.2406 164.145 24.2406 163.594V159.438C23.3891 159.055 22.7906 158.194 22.7906 157.201C22.7906 155.844 23.8951 154.749 25.2526 154.749C26.61 154.749 27.7051 155.844 27.7051 157.201C27.7051 158.202 27.116 159.063 26.2551 159.448H26.2513Z" fill="white"/>
<path d="M33.4487 150.638H31.4361V149.653C31.4361 146.239 28.6589 143.464 25.2473 143.464C21.8357 143.464 19.0585 146.241 19.0585 149.653V150.638H17.0459V149.653C17.0459 145.129 20.7256 141.449 25.2492 141.449C29.7728 141.449 33.4506 145.129 33.4506 149.653V150.638H33.4487Z" fill="white"/>
<path d="M172.455 0H136.53V44.8414H172.455V0Z" fill="#296ACC"/>
<path d="M177.114 4.63123H141.19V49.4726H177.114V4.63123Z" fill="white" stroke="#5896FA" stroke-width="6.34" stroke-miterlimit="10"/>
<path d="M183.031 9.17743H147.107V54.0188H183.031V9.17743Z" fill="white" stroke="#5896FA" stroke-width="6.34" stroke-miterlimit="10"/>
<path d="M187.336 13.8087H151.411V58.6501H187.336V13.8087Z" fill="#5896FA"/>
<path d="M181.745 21.1698H163.164V24.0867H181.745V21.1698Z" fill="#005CEA"/>
<path d="M181.745 28.0212H157.668V30.9382H181.745V28.0212Z" fill="#005CEA"/>
<path d="M181.745 34.8728H157.668V37.7897H181.745V34.8728Z" fill="#005CEA"/>
<path d="M181.745 41.7261H157.668V44.6431H181.745V41.7261Z" fill="#005CEA"/>
<path d="M181.745 48.5776H157.668V51.4945H181.745V48.5776Z" fill="#005CEA"/>
<path d="M70.0813 51.6351C71.6456 44.8049 67.3769 37.9999 60.5468 36.4356C53.7166 34.8713 46.9116 39.1401 45.3473 45.9702C43.783 52.8003 48.0518 59.6053 54.8819 61.1696C61.712 62.7339 68.517 58.4652 70.0813 51.6351Z" fill="white"/>
<path d="M77.7386 60.874C79.383 58.1458 80.412 55.1968 80.8481 52.2213L81.794 52.3592L83.6612 52.6329H83.6858C84.1898 49.2308 84.018 45.7871 83.1949 42.4982L80.4177 43.1855C79.6719 40.21 78.3598 37.3724 76.4907 34.8746L78.7921 33.1641C76.8229 30.4907 74.2949 28.1534 71.278 26.3353L69.7959 28.7934C67.0583 27.1414 64.1187 26.12 61.1433 25.6839L61.5586 22.8482C58.1546 22.3441 54.7053 22.5253 51.4221 23.339L52.1093 26.1162C49.1319 26.8601 46.2962 28.1741 43.7984 30.0432L42.0879 27.7418C39.4145 29.711 37.0772 32.239 35.2591 35.256L37.7172 36.738C36.0671 39.4756 35.0438 42.4152 34.6077 45.3906L32.6008 45.0961L31.7814 44.9828L31.772 44.9772C31.2679 48.3812 31.4491 51.8305 32.2629 55.1137L35.0401 54.4265C35.7858 57.402 37.1055 60.2434 38.9765 62.743L36.6751 64.4536C38.6442 67.1269 41.1628 69.4586 44.1798 71.2767L45.6618 68.8186C48.3994 70.4687 51.3484 71.4976 54.3239 71.9337L53.9973 74.137L53.9085 74.7695C57.3126 75.2736 60.7525 75.0867 64.0357 74.2729L63.3484 71.4957C66.3239 70.75 69.1653 69.4303 71.6744 67.5649L73.3849 69.8664C76.0489 67.8916 78.3805 65.373 80.1987 62.356L77.7405 60.874H77.7386ZM51.1729 59.6732C45.1672 56.0521 43.2358 48.2585 46.8588 42.2528C50.4743 36.2566 58.2679 34.3271 64.2735 37.9482C70.2698 41.5656 72.2012 49.3573 68.5838 55.3535C64.9627 61.3592 57.1691 63.2906 51.1729 59.6732Z" fill="#005CEA"/>
<path d="M30.2539 59.1899C29.3288 57.7909 28.1582 56.6354 26.8423 55.7556L27.1217 55.3365L27.6749 54.5115L27.6806 54.5001C26.1758 53.4919 24.4993 52.7953 22.7492 52.4422L22.449 53.9186C20.865 53.5996 19.2205 53.5845 17.6082 53.9092L17.3156 52.429C15.5994 52.7613 13.9172 53.4353 12.3709 54.4586L13.2054 55.7198C11.8008 56.6487 10.651 57.8154 9.7712 59.1313L8.51569 58.2931C7.50751 59.7978 6.81273 61.48 6.45779 63.2245L7.93419 63.5247C7.61512 65.1087 7.60002 66.7531 7.92476 68.3655L6.44458 68.6581C6.77686 70.3743 7.45087 72.0565 8.47416 73.6027L9.73533 72.7682C10.6642 74.1729 11.831 75.3227 13.1469 76.2025L12.5541 77.0898L12.3143 77.4542L12.3086 77.458C13.8134 78.4662 15.4956 79.1609 17.24 79.5159L17.5402 78.0395C19.1242 78.3585 20.7743 78.3717 22.3848 78.047L22.6774 79.5272C24.3936 79.1949 26.072 78.5247 27.6183 77.4995L26.7838 76.2383C28.1884 75.3094 29.342 74.1408 30.2218 72.823L31.196 73.4762L31.4773 73.6612C32.4855 72.1565 33.1746 70.4781 33.5295 68.7336L32.0531 68.4334C32.3722 66.8494 32.3854 65.1993 32.0645 63.5851L33.5446 63.2925C33.2067 61.5801 32.5365 59.9016 31.5132 58.3554L30.252 59.1899H30.2539ZM23.6799 71.5524C20.6006 73.5895 16.4584 72.7475 14.4213 69.6682C12.3861 66.5926 13.23 62.4523 16.3093 60.4133C19.3848 58.378 23.5251 59.222 25.5604 62.2975C27.5975 65.3768 26.7555 69.519 23.6799 71.5543V71.5524Z" fill="#1251B3"/>
<path d="M237.764 65.1221H206.92C206.27 65.1221 205.744 65.6487 205.744 66.2983V83.7999C205.744 84.4495 206.27 84.9761 206.92 84.9761H237.764C238.413 84.9761 238.94 84.4495 238.94 83.7999V66.2983C238.94 65.6487 238.413 65.1221 237.764 65.1221Z" fill="#005CEA"/>
<path d="M238.94 68.8717H205.744V72.2984H238.94V68.8717Z" fill="#5896FA"/>
<path d="M213.348 81.1662H208.468C208.158 81.1662 207.905 81.4173 207.905 81.7288C207.905 82.0385 208.156 82.2914 208.468 82.2914H213.348C213.658 82.2914 213.911 82.0403 213.911 81.7288C213.911 81.4192 213.66 81.1662 213.348 81.1662Z" fill="#D1F5FF"/>
<path d="M220.855 81.1662H215.974C215.665 81.1662 215.412 81.4173 215.412 81.7288C215.412 82.0385 215.663 82.2914 215.974 82.2914H220.855C221.165 82.2914 221.418 82.0403 221.418 81.7288C221.418 81.4192 221.166 81.1662 220.855 81.1662Z" fill="#D1F5FF"/>
<path d="M228.362 81.1662H223.481C223.172 81.1662 222.919 81.4173 222.919 81.7288C222.919 82.0385 223.17 82.2914 223.481 82.2914H228.362C228.671 82.2914 228.924 82.0403 228.924 81.7288C228.924 81.4192 228.673 81.1662 228.362 81.1662Z" fill="#D1F5FF"/>
<path d="M235.866 81.1662H230.986C230.676 81.1662 230.423 81.4173 230.423 81.7288C230.423 82.0385 230.674 82.2914 230.986 82.2914H235.866C236.176 82.2914 236.429 82.0403 236.429 81.7288C236.429 81.4192 236.178 81.1662 235.866 81.1662Z" fill="#D1F5FF"/>
<path d="M208.244 66.1285C207.902 66.1285 207.624 66.406 207.624 66.7477V66.9649C207.624 67.3066 207.902 67.5841 208.244 67.5841C208.585 67.5841 208.863 67.3066 208.863 66.9649V66.7477C208.863 66.406 208.585 66.1285 208.244 66.1285Z" fill="#D1F5FF"/>
<path d="M209.578 66.8572C209.578 67.2594 209.905 67.586 210.307 67.586H212.89C213.292 67.586 213.618 67.2594 213.618 66.8572C213.618 66.4551 213.292 66.1285 212.89 66.1285H210.307C209.905 66.1285 209.578 66.4551 209.578 66.8572Z" fill="#D1F5FF"/>
<path d="M212.576 74.1391H209.24C208.705 74.1391 208.272 74.5727 208.272 75.1076V77.9849C208.272 78.5198 208.705 78.9534 209.24 78.9534H212.576C213.111 78.9534 213.545 78.5198 213.545 77.9849V75.1076C213.545 74.5727 213.111 74.1391 212.576 74.1391Z" fill="#5896FA"/>
<path d="M225.548 135.546V133.278C225.548 132.249 224.714 131.413 223.685 131.413H203.835C202.806 131.413 201.969 132.247 201.969 133.278V173.366H253.313V135.546H225.547H225.548Z" fill="#1251B3"/>
<path d="M255.45 136.924H205.101L201.971 173.365H253.064L255.45 136.924Z" fill="white"/>
<path d="M253.315 173.365H201.971L207.42 137.377C207.578 136.323 208.485 135.545 209.55 135.545H256.538C257.855 135.545 258.864 136.718 258.667 138.021L253.317 173.365H253.315Z" fill="#3383FF"/>
<path d="M267.01 145.243C271.604 140.648 271.604 133.2 267.01 128.606C262.416 124.012 254.967 124.012 250.373 128.606C245.779 133.2 245.779 140.648 250.373 145.243C254.967 149.837 262.416 149.837 267.01 145.243Z" fill="#005CEA"/>
<path d="M258.69 149.118C251.965 149.118 246.494 143.647 246.494 136.924C246.494 130.201 251.965 124.729 258.69 124.729C265.415 124.729 270.886 130.201 270.886 136.924C270.886 143.647 265.415 149.118 258.69 149.118ZM258.69 125.59C252.439 125.59 247.356 130.675 247.356 136.924C247.356 143.173 252.439 148.259 258.69 148.259C264.941 148.259 270.024 143.173 270.024 136.924C270.024 130.675 264.941 125.59 258.69 125.59Z" fill="white"/>
<path d="M253.028 134.794V143.124C253.028 144.051 264.354 144.051 264.354 143.124V134.794H253.028ZM259.264 139.218V141.58C259.264 141.895 259.009 142.156 258.694 142.156C258.379 142.156 258.118 141.895 258.118 141.58V139.214C257.633 138.995 257.291 138.506 257.291 137.94C257.291 137.167 257.92 136.543 258.692 136.543C259.464 136.543 260.089 137.166 260.089 137.94C260.089 138.51 259.753 139.001 259.262 139.218H259.264Z" fill="white"/>
<path d="M263.361 134.201H262.215V133.641C262.215 131.698 260.633 130.116 258.69 130.116C256.747 130.116 255.165 131.698 255.165 133.641V134.201H254.019V133.641C254.019 131.065 256.115 128.97 258.69 128.97C261.265 128.97 263.361 131.065 263.361 133.641V134.201Z" fill="white"/>
<path d="M217.84 42.9742C220.328 42.9742 222.345 40.9574 222.345 38.4695C222.345 35.9816 220.328 33.9648 217.84 33.9648C215.352 33.9648 213.335 35.9816 213.335 38.4695C213.335 40.9574 215.352 42.9742 217.84 42.9742Z" fill="#AAE0FF"/>
<path d="M104.007 56.0381C104.428 53.5861 102.782 51.2568 100.33 50.8355C97.8784 50.4142 95.5492 52.0604 95.1279 54.5123C94.7065 56.9643 96.3527 59.2935 98.8046 59.7148C101.257 60.1362 103.586 58.49 104.007 56.0381Z" fill="#AAE0FF"/>
<path d="M249.422 117.599C250.723 117.599 251.778 116.544 251.778 115.242C251.778 113.941 250.723 112.886 249.422 112.886C248.121 112.886 247.066 113.941 247.066 115.242C247.066 116.544 248.121 117.599 249.422 117.599Z" fill="white"/>
<path d="M5.12614 120.197C5.42351 118.93 4.63759 117.662 3.37073 117.365C2.10387 117.067 0.835812 117.853 0.53844 119.12C0.241068 120.387 1.02699 121.655 2.29385 121.952C3.56071 122.25 4.82876 121.464 5.12614 120.197Z" fill="#AAE0FF"/>
<path d="M41.6333 209.598C43.8743 208.518 44.8151 205.825 43.7347 203.584C42.6542 201.343 39.9616 200.402 37.7206 201.483C35.4795 202.563 34.5387 205.256 35.6192 207.497C36.6996 209.738 39.3922 210.679 41.6333 209.598Z" fill="#AAE0FF"/>
<path d="M111.968 10.5632C111.537 10.5632 111.188 10.2139 111.188 9.78346V1.42915C111.188 0.998691 111.537 0.649414 111.968 0.649414C112.398 0.649414 112.747 0.998691 112.747 1.42915V9.78346C112.747 10.2139 112.398 10.5632 111.968 10.5632Z" fill="#AAE0FF"/>
<path d="M107.01 5.60542C107.01 5.17496 107.359 4.82568 107.789 4.82568H116.144C116.574 4.82568 116.923 5.17496 116.923 5.60542C116.923 6.03588 116.574 6.38515 116.144 6.38515H107.789C107.359 6.38515 107.01 6.03588 107.01 5.60542Z" fill="#AAE0FF"/>
<path d="M200.786 117.844C200.355 117.844 200.006 117.495 200.006 117.064V108.71C200.006 108.279 200.355 107.93 200.786 107.93C201.216 107.93 201.566 108.279 201.566 108.71V117.064C201.566 117.495 201.216 117.844 200.786 117.844Z" fill="white"/>
<path d="M195.83 112.886C195.83 112.456 196.179 112.106 196.61 112.106H204.964C205.394 112.106 205.744 112.456 205.744 112.886C205.744 113.317 205.394 113.666 204.964 113.666H196.61C196.179 113.666 195.83 113.317 195.83 112.886Z" fill="white"/>
<path d="M192.292 227.885C191.861 227.885 191.512 227.536 191.512 227.105V218.751C191.512 218.32 191.861 217.971 192.292 217.971C192.722 217.971 193.071 218.32 193.071 218.751V227.105C193.071 227.536 192.722 227.885 192.292 227.885Z" fill="white"/>
<path d="M187.334 222.927C187.334 222.496 187.683 222.147 188.114 222.147H196.468C196.898 222.147 197.248 222.496 197.248 222.927C197.248 223.357 196.898 223.707 196.468 223.707H188.114C187.683 223.707 187.334 223.357 187.334 222.927Z" fill="white"/>
<path d="M122.755 168.021C124.135 168.021 125.253 166.902 125.253 165.523C125.253 164.143 124.135 163.025 122.755 163.025C121.376 163.025 120.258 164.143 120.258 165.523C120.258 166.902 121.376 168.021 122.755 168.021Z" stroke="white" stroke-width="4.23" stroke-miterlimit="10"/>
<path d="M184.151 394.352H174.375L173.363 373.097H185.161L184.151 394.352Z" fill="#0E0E0E"/>
<path d="M354.044 394.352H344.268L343.256 373.097H355.054L354.044 394.352Z" fill="#0E0E0E"/>
<path d="M345.522 336.208C344.444 339.55 343.27 342.98 341.986 346.499H179.705C179.705 346.499 158.761 261.255 179.705 245.666C180.241 245.268 180.883 244.875 181.632 244.492C209.839 229.998 322.929 226.595 345.888 245.241C346.064 245.379 346.226 245.522 346.383 245.666C354.843 253.433 362.199 284.432 345.524 336.208H345.522Z" fill="#407BFF"/>
<path d="M240.887 346.499H179.739L185.701 286.754C196.364 291.381 224.75 315.81 240.885 346.499H240.887Z" fill="#9FB9F4"/>
<path d="M345.522 336.208C344.444 339.549 343.27 342.98 341.986 346.499H283.043C293.18 327.7 317.759 299.226 341.627 286.118L345.524 336.208H345.522Z" fill="#9FB9F4"/>
<path d="M365.855 285.918H343.356C339.575 285.918 336.378 288.719 335.882 292.469L328.706 346.726H197.212L190.035 292.469C189.539 288.719 186.343 285.918 182.561 285.918H160.062C155.368 285.918 151.815 290.16 152.64 294.782L165.131 385.137H360.784L373.275 294.782C374.1 290.16 370.547 285.918 365.854 285.918H365.855Z" fill="#407BFF"/>
<path d="M327.396 317.09C337.983 320.634 335.92 343.052 327.396 346.499H198.953C189.36 344.024 188.55 314.369 202.383 316.601C287.048 332.52 291.15 307.123 327.396 317.092V317.09Z" fill="#0E64CB"/>
<path d="M229.498 294.366C229.459 300.155 229.77 305.602 230.393 310.374H290.62L294.186 251.568C290.608 230.088 280.815 224.883 265.313 224.883C251.44 224.883 242.201 236.199 236.586 251.349C231.732 264.438 229.585 280.382 229.498 294.366Z" fill="#007880"/>
<path d="M229.498 295.503L251.293 294.191C239.193 290.23 238.23 271.66 250.53 260.103L236.584 251.349C231.73 264.438 229.583 281.519 229.496 295.501L229.498 295.503Z" fill="#005459"/>
<path d="M225.35 322.527H308.097V294.368H233.559L225.35 322.527Z" fill="#0E0E0E"/>
<path d="M318.668 313.592L296.442 394.352H279.111C284.597 359.985 283.368 337.644 288.53 309.108C293.057 285.683 324.056 291.882 318.668 313.592Z" fill="#0E0E0E"/>
<path d="M290.217 394.352C290.217 394.299 290.214 394.246 290.214 394.191C290.214 388.205 295.068 383.351 301.054 383.351C307.041 383.351 311.895 388.205 311.895 394.191C311.895 394.244 311.891 394.297 311.891 394.352H290.219H290.217Z" fill="#B15626"/>
<path d="M303.143 383.554L299.202 382.35C296.601 377.233 285.509 377.868 287.053 384.094C282.702 384.742 280.411 382.574 280.411 382.574L279.111 394.352H302.612L303.143 383.554Z" fill="#B15626"/>
<path d="M221.074 313.592L243.299 394.352H260.631C255.145 359.985 256.374 337.644 251.212 309.108C246.684 285.683 215.686 291.882 221.074 313.592Z" fill="#0E0E0E"/>
<path d="M249.526 394.352C249.526 394.299 249.53 394.246 249.53 394.191C249.53 388.205 244.676 383.351 238.689 383.351C232.702 383.351 227.848 388.205 227.848 394.191C227.848 394.244 227.852 394.297 227.852 394.352H249.524H249.526Z" fill="#B15626"/>
<path d="M236.599 383.554L240.539 382.35C243.141 377.233 254.233 377.868 252.688 384.094C257.04 384.742 259.33 382.574 259.33 382.574L260.631 394.352H237.129L236.599 383.554Z" fill="#B15626"/>
<path d="M256.032 226.773C264.16 231.706 265.319 246.355 261.152 252.191L237.958 269.47L261.573 281.63L257.737 294.191C257.737 294.191 233.089 292.186 221.023 279.808C209.439 267.925 237.681 233.02 256.034 226.771L256.032 226.773Z" fill="#007880"/>
<path d="M272.522 248.994C265.568 240.264 270.371 226.773 279.233 227.169C308.095 237.33 317.004 265.542 307.861 278.207C300.028 289.057 265.568 293.235 265.568 293.235V281.356L289.511 276.183C289.511 276.183 277.166 257.056 272.522 248.994Z" fill="#007880"/>
<path d="M247.23 290.222C246.783 286.244 249.111 281.269 255.097 280.182C265.555 278.282 269.34 284.02 270.328 288.123C270.584 289.191 269.614 290.322 268.715 290.222C267.817 290.122 267.186 289.616 267.031 288.802C266.846 287.822 266.327 286.61 265.206 285.978C266.286 288.096 265.834 290.222 262.891 290.222H247.228H247.23Z" fill="#F7A594"/>
<path d="M270.841 290.213L279.071 248.949H280.815C280.258 251.791 272.163 293.079 271.91 294.368H247.247L244.553 290.213H270.841Z" fill="#99C1FF"/>
<path d="M280.815 248.949H342.052L332.993 294.368H271.91L280.815 248.949Z" fill="#D8E3FC"/>
<path d="M262.961 229.731C262.961 234.427 277.036 237.54 281.637 232.605C282.333 231.865 282.811 230.945 282.996 229.82L285.647 217.928L268.836 211.59L268.336 213.144L262.961 229.731Z" fill="#F7A594"/>
<path d="M282.996 229.82L285.647 217.928L269.743 213.646C265.625 225.897 280.315 235.686 282.994 229.82H282.996Z" fill="#F4856D"/>
<path d="M267.594 207.021C266.708 218.709 275.946 229.002 283.696 229.525C291.447 230.048 302.119 221.39 303.003 209.702C303.888 198.013 296.678 187.939 286.9 187.197C277.122 186.457 268.477 195.332 267.594 207.021Z" fill="#F7A594"/>
<path d="M280.553 188.082C291.271 181.295 297.169 187.678 302.506 194.449C306.252 199.199 308.905 202.612 313.564 203.328C304.598 214.637 286.668 207.175 281.019 195.844C280.462 202.295 272.859 207.638 267.596 207.021C265.891 199.843 270.862 185.332 280.555 188.082H280.553Z" fill="#0E0E0E"/>
<path d="M270.394 211.765C272.937 211.352 274.664 208.956 274.251 206.413C273.838 203.87 271.442 202.143 268.899 202.555C266.355 202.968 264.628 205.365 265.041 207.908C265.454 210.451 267.85 212.178 270.394 211.765Z" fill="#F7A594"/>
</svg>
