<svg width="50" height="50" viewBox="0 0 91 91" fill="none" xmlns="http://www.w3.org/2000/svg">
<path d="M45.4999 82.664C45.3113 82.4498 45.0545 82.156 44.7383 81.7889C44.0153 80.9498 42.9817 79.728 41.741 78.1992C39.2592 75.1413 35.9509 70.8581 32.6436 65.9562C29.3353 61.0529 26.0342 55.5395 23.5617 50.0205C21.0862 44.495 19.4583 39.0006 19.4583 34.1252C19.4583 19.7276 31.1023 8.0835 45.4999 8.0835C59.8975 8.0835 71.5416 19.7276 71.5416 34.1252C71.5416 39.0006 69.9136 44.495 67.4381 50.0205C64.9656 55.5395 61.6645 61.0529 58.3563 65.9562C55.049 70.8581 51.7407 75.1413 49.2588 78.1992C48.0181 79.728 46.9845 80.9498 46.2616 81.7889C45.9453 82.156 45.6885 82.4498 45.4999 82.664ZM35.5208 34.1252C35.5208 39.6338 39.9913 44.1043 45.4999 44.1043C51.0086 44.1043 55.4791 39.6338 55.4791 34.1252C55.4791 28.6165 51.0086 24.146 45.4999 24.146C39.9913 24.146 35.5208 28.6165 35.5208 34.1252Z" fill="#0057FF" stroke="white"/>
<circle cx="45.5005" cy="33.366" r="18.2" fill="#0057FF"/>
<path d="M43.4779 57.6329H41.4557L43.4779 43.4774H36.4002C35.2273 43.4774 35.2475 42.8302 35.6317 42.1427C36.0159 41.4551 35.7328 41.9809 35.7733 41.9C38.3819 37.2894 42.3051 30.4138 47.5224 21.2329H49.5446L47.5224 35.3885H54.6002C55.591 35.3885 55.7326 36.0558 55.5506 36.4198L55.409 36.7231C47.4415 50.6562 43.4779 57.6329 43.4779 57.6329Z" fill="white"/>
</svg>
