<svg version="1.0" xmlns="http://www.w3.org/2000/svg"
  viewBox="0 59.24 511.87 393.76"
 preserveAspectRatio="xMidYMid meet">

<g transform="translate(0.000000,512.000000) scale(0.100000,-0.100000)"
 stroke="none">
<path d="M341 4514 c-161 -44 -284 -167 -326 -329 -13 -52 -15 -251 -15 -1625
0 -1713 -3 -1620 58 -1734 35 -65 113 -143 178 -178 105 -57 121 -58 695 -58
500 0 528 1 550 19 28 23 32 83 6 109 -16 16 -63 17 -565 22 -547 5 -547 5
-594 28 -60 30 -120 90 -150 150 -33 67 -33 187 0 254 30 60 90 120 150 150
43 21 64 23 252 28 235 6 261 13 315 89 l30 43 3 434 3 434 347 0 347 0 618
-803 617 -802 -571 -5 -571 -5 -19 -24 c-26 -32 -24 -67 6 -96 l24 -25 1589 0
c1723 0 1642 -3 1716 54 19 14 45 47 57 73 l24 48 3 1605 c2 1128 0 1620 -8
1656 -13 60 -56 116 -113 147 l-42 22 -1460 3 -1460 2 -18 44 c-25 61 -76 117
-138 151 -49 27 -63 30 -144 30 -74 0 -97 -4 -133 -23 -67 -36 -118 -87 -143
-147 l-24 -55 -252 0 -251 0 -4 99 c-3 91 -5 103 -33 142 -54 76 -81 84 -305
86 -147 2 -208 -1 -249 -13z m421 -151 c17 -15 18 -73 18 -1423 0 -1327 -1
-1408 -17 -1423 -15 -12 -54 -16 -213 -19 -215 -5 -261 -15 -349 -78 -22 -17
-43 -30 -46 -30 -3 0 -5 614 -5 1363 0 1138 2 1372 14 1410 27 89 111 175 199
203 27 8 101 13 211 13 144 1 172 -1 188 -16z m1044 -99 c104 -49 112 -205 14
-271 -59 -41 -155 -28 -204 26 -28 31 -31 172 -5 205 42 53 130 71 195 40z
m-355 -256 c8 -27 34 -63 69 -98 35 -35 71 -61 98 -69 l42 -14 0 -127 c0 -150
10 -174 75 -174 65 0 75 24 75 173 l0 126 48 20 c60 25 132 97 157 157 l20 48
768 0 767 0 -2 -297 -3 -298 -335 -5 c-236 -4 -341 -9 -356 -17 -47 -27 -54
-66 -54 -292 l0 -211 -465 0 c-452 0 -466 -1 -485 -20 -30 -30 -27 -83 6 -109
27 -21 32 -21 876 -21 940 0 893 -3 941 64 l22 31 3 588 3 587 139 0 140 0 0
-577 c0 -638 -2 -620 63 -667 28 -20 41 -21 468 -24 l439 -3 0 -139 0 -140
-1361 0 c-1487 0 -1411 3 -1438 -56 -17 -39 -13 -68 15 -110 24 -35 1054
-1377 1176 -1531 l50 -63 -180 0 -179 0 -662 860 c-364 473 -674 868 -689 878
-23 15 -65 17 -399 20 l-373 3 0 139 0 140 325 0 326 0 24 25 c31 30 32 71 3
102 l-21 23 -329 0 -328 0 0 560 0 560 253 0 254 0 14 -42z m3500 13 c18 -22
19 -46 19 -557 l0 -534 -410 0 -410 0 0 560 0 561 391 -3 391 -3 19 -24z
m-1381 -906 l0 -185 -300 0 -300 0 0 185 0 185 300 0 300 0 0 -185z m1400
-1535 c0 -550 -3 -776 -11 -794 -7 -13 -23 -30 -38 -35 -18 -8 -228 -10 -676
-9 l-649 3 -543 705 c-299 388 -577 749 -618 803 l-75 97 1305 0 1305 0 0
-770z"/>
<path d="M3423 2194 c-52 -19 -126 -83 -157 -137 -88 -152 -21 -359 139 -428
l55 -24 0 -126 c0 -108 3 -130 18 -150 27 -33 78 -30 109 5 21 25 23 36 23
150 l0 123 46 18 c25 9 67 39 94 66 148 148 107 394 -82 488 -52 26 -72 31
-132 30 -39 0 -90 -7 -113 -15z m198 -158 c133 -90 57 -299 -103 -284 -197 19
-182 308 16 308 38 0 61 -6 87 -24z"/>
<path d="M1345 1927 c-137 -46 -225 -162 -225 -297 0 -115 77 -235 180 -279
l50 -22 0 -125 c0 -119 1 -126 25 -149 31 -32 74 -33 103 -2 20 21 22 34 22
149 l0 126 43 17 c69 27 123 79 158 150 27 55 32 77 32 135 0 124 -75 238
-188 285 -55 22 -151 28 -200 12z m149 -157 c121 -59 121 -222 0 -280 -63 -31
-121 -22 -173 28 -68 65 -68 159 0 224 54 51 108 60 173 28z"/>
</g>
</svg>
