<svg xmlns="http://www.w3.org/2000/svg" fill="none" xmlnsv="https://vecta.io/nano" viewBox="2.35 5.74 214.67 41.27"><path d="M39.711 17.024h-8.979a3.13 3.13 0 0 0-3.117 3.117v2.859h15.112v-2.96a3 3 0 0 0-.226-1.157c-.151-.367-.373-.7-.654-.981a3 3 0 0 0-2.137-.879z" fill="#f89639"></path><path d="M44.443 22.986H26.185v6.319h18.258v-6.319z" fill="#fff"></path><path d="M27.272 28.677v2.759a3.2 3.2 0 0 0 .943 2.27 3.2 3.2 0 0 0 2.274.933h10.008c.303.002.604-.056.885-.171a2.3 2.3 0 0 0 .752-.498c.215-.214.386-.468.503-.749a2.3 2.3 0 0 0 .177-.884v-3.66H27.272z" fill="#008b48"></path><g fill="#1fa7fe"><path d="M34.957 37a10.83 10.83 0 0 1-5.5-1.472c-1.675-.982-3.003-2.31-3.984-3.984a10.83 10.83 0 0 1-1.472-5.5c0-1.992.491-3.825 1.472-5.5.982-1.703 2.31-3.046 3.984-4.028 1.703-1.01 3.537-1.516 5.5-1.516 1.992 0 3.826.505 5.5 1.516 1.703.982 3.046 2.324 4.028 4.028 1.011 1.675 1.516 3.508 1.516 5.5 0 1.963-.505 3.797-1.516 5.5-.982 1.674-2.324 3.003-4.028 3.984-1.674.982-3.508 1.472-5.5 1.472zm0-2.902c1.472 0 2.815-.361 4.028-1.083 1.241-.722 2.223-1.703 2.945-2.945s1.083-2.584 1.083-4.028c0-1.472-.361-2.829-1.083-4.071s-1.703-2.223-2.945-2.945c-1.213-.722-2.555-1.083-4.028-1.083-1.444 0-2.786.361-4.028 1.083-1.213.722-2.18 1.703-2.901 2.945s-1.083 2.599-1.083 4.071c0 1.444.361 2.786 1.083 4.028s1.689 2.223 2.901 2.945c1.242.722 2.584 1.083 4.028 1.083z"></path><path d="M6.486 26.143V37H2.35V5.745h8.789a9.43 9.43 0 0 1 3.807.799 9.81 9.81 0 0 1 3.243 2.162c.94.971 1.661 2.084 2.162 3.337.533 1.222.799 2.522.799 3.901a9.99 9.99 0 0 1-.799 3.948 9.81 9.81 0 0 1-2.162 3.243c-.94.94-2.021 1.676-3.243 2.209a9.43 9.43 0 0 1-3.807.799H6.486zm0-16.121V21.96h4.653c1.629 0 3.008-.595 4.136-1.786 1.159-1.159 1.739-2.569 1.739-4.23a5.7 5.7 0 0 0-1.739-4.183c-1.159-1.159-2.538-1.739-4.136-1.739H6.486zM34.93 37.235a11.31 11.31 0 0 1-4.559-.94c-1.441-.627-2.71-1.488-3.807-2.585s-1.958-2.366-2.585-3.807a11.31 11.31 0 0 1-.94-4.559 11.76 11.76 0 0 1 .94-4.653c.627-1.473 1.488-2.757 2.585-3.854s2.366-1.943 3.807-2.538a11.31 11.31 0 0 1 4.559-.94 11.76 11.76 0 0 1 4.653.94c1.473.595 2.757 1.441 3.854 2.538s1.943 2.381 2.538 3.854c.627 1.473.94 3.024.94 4.653 0 1.598-.313 3.118-.94 4.559-.595 1.441-1.441 2.71-2.538 3.807a12.08 12.08 0 0 1-3.854 2.585 11.76 11.76 0 0 1-4.653.94zm0-19.693c-2.099 0-3.901.752-5.405 2.256-.721.721-1.285 1.567-1.692 2.538s-.611 1.974-.611 3.008.204 2.021.611 2.961.971 1.77 1.692 2.491 1.535 1.285 2.444 1.692a7.37 7.37 0 0 0 2.961.611c1.034 0 2.037-.204 3.008-.611s1.802-.971 2.491-1.692 1.238-1.551 1.645-2.491a7.37 7.37 0 0 0 .611-2.961c0-1.034-.204-2.037-.611-3.008s-.956-1.817-1.645-2.538-1.52-1.269-2.491-1.645c-.94-.407-1.943-.611-3.008-.611zM75.014 37h-4.089l-4.277-10.622L62.371 37h-4.089l-9.494-23.5h4.606l6.909 17.155 4.042-9.917-2.914-7.238h4.606l6.909 17.155L79.855 13.5h4.559l-9.4 23.5zm14.867-9.964c0 .752.266 1.535.799 2.35.564.815 1.206 1.504 1.927 2.068 1.316 1.034 2.851 1.551 4.606 1.551 2.789 0 5.061-1.347 6.815-4.042l3.572 2.115c-1.222 1.974-2.726 3.494-4.512 4.559s-3.744 1.598-5.875 1.598c-1.598 0-3.118-.298-4.559-.893-1.441-.627-2.71-1.488-3.807-2.585s-1.958-2.366-2.585-3.807c-.595-1.441-.893-2.961-.893-4.559s.298-3.118.893-4.559c.627-1.473 1.488-2.757 2.585-3.854 1.065-1.097 2.319-1.943 3.76-2.538 1.473-.595 3.008-.893 4.606-.893s3.118.298 4.559.893c1.473.595 2.742 1.441 3.807 2.538 2.319 2.381 3.478 5.139 3.478 8.272a12.06 12.06 0 0 1-.141 1.786H89.881zm7.332-9.635a7.98 7.98 0 0 0-3.619.846c-1.128.564-2.037 1.316-2.726 2.256-.658.909-.987 1.88-.987 2.914h14.664c0-1.034-.344-2.005-1.034-2.914-.658-.94-1.551-1.692-2.679-2.256a7.98 7.98 0 0 0-3.619-.846zm26.555.611c-.752-.345-1.426-.517-2.021-.517-1.254 0-2.288.439-3.102 1.316-.878.94-1.316 2.021-1.316 3.243V37h-4.042V22.054c0-1.692.423-3.243 1.269-4.653a9.04 9.04 0 0 1 3.572-3.29c1.128-.533 2.334-.799 3.619-.799a7.9 7.9 0 0 1 2.961.564c.94.376 1.927.987 2.961 1.833l-3.901 2.303z"></path></g><path d="M143.765 20.503c-.094-.564-.297-1.097-.611-1.598-.595-1.034-1.77-1.551-3.525-1.551-.94 0-1.66.11-2.162.329-.658.251-1.159.611-1.504 1.081a2.74 2.74 0 0 0-.47 1.551c0 .689.251 1.316.752 1.88.533.595 1.395.909 2.585.94 2.1.094 3.792.345 5.076.752 1.316.407 2.319 1.112 3.008 2.115.721 1.003 1.081 2.413 1.081 4.23 0 1.849-.705 3.447-2.115 4.794-.689.658-1.504 1.191-2.444 1.598a6.93 6.93 0 0 1-2.867.611h-.705c-2.506 0-4.527-.721-6.063-2.162-1.253-1.159-2.036-2.789-2.35-4.888h4.183c.157.752.47 1.363.94 1.833.721.689 1.724 1.034 3.008 1.034.345 0 .596-.016.752-.047 1.097-.063 1.959-.36 2.585-.893.627-.564.94-1.253.94-2.068 0-1.128-.344-1.864-1.034-2.209s-2.021-.517-3.995-.517c-2.475 0-4.371-.783-5.687-2.35-1.065-1.191-1.598-2.695-1.598-4.512 0-.407.016-.721.047-.94.251-2.037 1.081-3.588 2.491-4.653 1.442-1.097 3.337-1.645 5.687-1.645 1.724 0 3.228.376 4.512 1.128.909.564 1.692 1.347 2.35 2.35.627 1.003 1.034 2.256 1.222 3.76l-.094.047h-3.995zm15.493-2.773V37h-3.995V17.73h-3.525V13.5h3.525V5.745h3.995V13.5h3.525v4.23h-3.525zm18.257.282c-.752-.345-1.426-.517-2.021-.517-1.254 0-2.288.439-3.102 1.316-.878.94-1.316 2.021-1.316 3.243V37h-4.042V22.054c0-1.692.423-3.243 1.269-4.653a9.04 9.04 0 0 1 3.572-3.29c1.128-.533 2.334-.799 3.619-.799a7.9 7.9 0 0 1 2.961.564c.94.376 1.927.987 2.961 1.833l-3.901 2.303zm8.893-7.896a2.2 2.2 0 0 1-1.551-.611 2.2 2.2 0 0 1-.611-1.551 2.04 2.04 0 0 1 .611-1.504c.438-.439.955-.658 1.551-.658a1.97 1.97 0 0 1 1.504.658c.438.407.658.909.658 1.504s-.22 1.112-.658 1.551c-.408.407-.909.611-1.504.611zM184.481 37V13.5h3.948V37h-3.948zm20.698.423c-1.786 0-3.275-.282-4.465-.846-1.191-.595-2.272-1.52-3.243-2.773v13.207h-4.183V14.064h4.183v3.29c.971-1.191 2.13-2.146 3.478-2.867s2.757-1.081 4.23-1.081c1.598 0 3.117.313 4.559.94a10.68 10.68 0 0 1 3.807 2.585c1.096 1.128 1.942 2.428 2.538 3.901.626 1.441.94 2.977.94 4.606s-.314 3.165-.94 4.606c-.596 1.441-1.442 2.726-2.538 3.854-1.066 1.097-2.335 1.958-3.807 2.585-1.442.627-2.961.94-4.559.94zm0-19.74a7.37 7.37 0 0 0-2.961.611 6.87 6.87 0 0 0-2.444 1.645c-.69.721-1.238 1.567-1.645 2.538-.408.94-.611 1.927-.611 2.961s.203 2.021.611 2.961.955 1.77 1.645 2.491 1.504 1.285 2.444 1.692a7.37 7.37 0 0 0 2.961.611 7.37 7.37 0 0 0 2.961-.611c.94-.407 1.754-.971 2.444-1.692s1.222-1.551 1.598-2.491c.407-.94.611-1.927.611-2.961s-.204-2.021-.611-2.961a7.6 7.6 0 0 0-1.598-2.538c-.69-.721-1.504-1.269-2.444-1.645a7.37 7.37 0 0 0-2.961-.611z" fill="#ffab39"></path></svg>