<svg width="24" height="20" viewBox="0 0 24 20" fill="none" xmlns="http://www.w3.org/2000/svg">
<path d="M1 1.99762V7.99762H7" stroke="#E9E9E9" stroke-linecap="round" stroke-linejoin="round"/>
<path d="M23 17.9976V11.9976H17" stroke="#E9E9E9" stroke-linecap="round" stroke-linejoin="round"/>
<path d="M20.49 6.99763C19.9828 5.56442 19.1209 4.28304 17.9845 3.27305C16.8482 2.26307 15.4745 1.5574 13.9917 1.22189C12.5089 0.886385 10.9652 0.931975 9.5048 1.35441C8.04436 1.77684 6.71473 2.56235 5.63999 3.63763L1.8139 6.99763M23 11.9976L18.36 16.3576C17.2852 17.4329 15.9556 18.2184 14.4952 18.6409C13.0347 19.0633 11.4911 19.1089 10.0083 18.7734C8.52545 18.4379 7.15179 17.7322 6.01545 16.7222C4.87912 15.7122 4.01715 14.4308 3.50999 12.9976" stroke="#E9E9E9" stroke-linecap="round" stroke-linejoin="round"/>
</svg>
