<svg width="17" height="19" viewBox="0 0 17 19" fill="none" xmlns="http://www.w3.org/2000/svg">
<path d="M16.3462 13.5714H14.0852L9.72661 6.78571H11.1154L11.7692 6.10714V0.678571L11.1154 0H5.88462L5.23077 0.678571V6.10714L5.88462 6.78571H7.27338L2.91485 13.5714H0.653846L0 14.25V18.3214L0.653846 19H4.57692L5.23077 18.3214V14.25L4.57692 13.5714H4.488L8.5 7.32857L12.512 13.5714H12.4231L11.7692 14.25V18.3214L12.4231 19H16.3462L17 18.3214V14.25L16.3462 13.5714ZM6.53846 5.42857V1.35714H10.4615V5.42857H6.53846ZM3.92308 14.9286V17.6429H1.30769V14.9286H3.92308ZM15.6923 17.6429H13.0769V14.9286H15.6923V17.6429Z" />
</svg>
